<svg version="1.1" id="Layer_1" xmlns="http://www.w3.org/2000/svg" xmlns:xlink="http://www.w3.org/1999/xlink" x="0px" y="0px"
	 width="100%" viewBox="0 0 417 121" enable-background="new 0 0 417 121" xml:space="preserve">
<path fill="#FBFBFB" opacity="1.000000" stroke="none" 
	d="
M270.000000,122.000000 
	C180.000015,122.000000 90.500023,122.000000 1.000024,122.000000 
	C1.000016,81.666679 1.000016,41.333363 1.000008,1.000035 
	C139.999969,1.000023 278.999939,1.000023 417.999939,1.000012 
	C417.999939,41.333294 417.999939,81.666588 417.999969,121.999939 
	C368.833344,122.000000 319.666656,122.000000 270.000000,122.000000 
M285.928009,106.264503 
	C285.233398,105.862946 284.538788,105.461395 283.356873,104.507889 
	C284.877777,100.661362 286.398712,96.814835 288.496216,92.991081 
	C288.880646,92.999847 289.265045,93.008614 290.053802,93.591370 
	C294.306824,98.615555 298.559845,103.639748 302.681091,108.508293 
	C306.837189,102.031357 310.360870,96.540009 313.880341,91.055214 
	C308.377228,88.383698 303.751099,86.137917 299.124969,83.892136 
	C305.097107,81.767906 302.739136,77.124840 303.843048,73.490242 
	C303.565491,73.376961 303.287903,73.263680 302.124268,72.882309 
	C299.683990,72.882309 297.243713,72.882309 296.211426,72.882309 
	C294.749512,75.500183 293.785736,77.226059 292.616119,78.930832 
	C292.616119,78.930832 292.413422,78.972244 292.095093,78.208168 
	C291.642517,76.652855 291.189941,75.097534 290.651947,72.845520 
	C294.968109,69.384857 299.284271,65.924187 303.993286,62.148514 
	C303.829956,60.250225 303.561493,57.129780 303.877258,53.960945 
	C304.066956,53.914009 304.256653,53.867073 304.911713,54.367294 
	C305.436981,55.647793 305.962250,56.928288 306.487518,58.208786 
	C307.064453,58.186729 307.641388,58.164673 308.218323,58.142620 
	C308.801392,55.822338 309.384460,53.502060 309.967529,51.181786 
	C307.547455,51.203403 304.810120,50.502991 302.773682,51.397755 
	C298.601990,53.230690 294.533173,54.358471 289.928680,52.690445 
	C289.783844,52.190697 289.639008,51.690952 289.984467,50.743786 
	C296.550842,46.472157 303.523865,45.187355 311.348022,46.661343 
	C314.548279,47.264236 318.129028,45.847412 321.536713,45.349419 
	C321.426239,44.828175 321.315796,44.306931 321.205353,43.785683 
	C302.128571,35.628387 286.505035,40.883846 273.888306,57.154114 
	C261.255127,38.227993 231.108780,30.437605 211.061813,57.355846 
	C208.590500,47.971241 202.910187,41.645622 193.356384,40.756111 
	C182.295807,39.726315 171.127625,39.776436 160.002914,39.654755 
	C159.115448,39.645050 157.475357,41.915165 157.423950,43.176300 
	C157.160049,49.650478 157.301727,56.141190 157.301727,61.122292 
	C148.017929,68.382454 145.753845,78.444931 139.609177,87.449371 
	C146.354935,87.449371 151.615204,87.449371 157.352402,87.449371 
	C157.352402,97.184822 157.352402,106.436325 157.352402,115.897095 
	C168.638458,115.897095 179.465225,116.415741 190.217392,115.742676 
	C199.840820,115.140259 207.848373,110.576180 213.140930,101.980705 
	C227.275650,120.589165 256.526428,124.395760 273.344788,100.075455 
	C274.887054,100.756271 276.365784,101.409012 277.920227,102.842583 
	C278.658875,108.992348 281.606750,111.518929 286.981476,110.066238 
	C288.659180,110.684135 290.336853,111.302032 291.249847,112.161659 
	C290.098694,113.939133 290.057678,114.047661 291.656921,114.652168 
	C298.320587,117.171028 305.166351,117.964409 312.203461,116.578865 
	C321.540375,114.740524 328.688171,109.438148 335.394531,102.317657 
	C335.394531,106.811287 335.394531,111.304909 335.394531,115.590622 
	C343.658905,115.590622 351.218903,115.590622 358.944092,115.590622 
	C358.944092,109.678261 358.944092,104.193146 358.944092,99.265503 
	C365.064667,99.265503 370.995148,99.265503 377.461487,99.265503 
	C377.461487,104.258789 377.461487,110.019142 377.461487,115.789307 
	C385.607147,115.789307 393.211273,115.789307 401.051270,115.789307 
	C401.051270,90.489159 401.051270,65.421227 401.051270,39.844696 
	C393.793793,39.844696 386.673462,39.739208 379.563019,39.956284 
	C378.472809,39.989571 376.955902,41.288231 376.441681,42.380741 
	C373.829895,47.929214 371.483521,53.602604 368.641205,59.494343 
	C368.641205,59.494343 368.214661,59.715897 367.843201,59.019581 
	C365.411316,53.765129 363.034515,48.483948 360.507294,43.275772 
	C359.904053,42.032558 358.830963,40.099728 357.919403,40.068344 
	C350.372589,39.808548 342.812958,39.921261 334.822510,39.921261 
	C334.822510,44.387634 334.822510,48.027317 334.822510,50.494942 
	C332.002319,49.052692 329.133301,47.555981 326.201965,46.193230 
	C326.083466,46.138149 325.376526,47.348797 325.010193,47.973705 
	C325.010193,47.973705 324.963531,47.926003 324.191284,48.024845 
	C322.146667,48.488846 319.370422,44.388428 317.991119,49.733650 
	C317.978760,50.210361 317.966370,50.687069 317.114807,51.031200 
	C316.516815,50.938095 315.918793,50.844990 315.320801,50.751884 
	C315.689484,51.917927 315.948975,53.133682 316.451996,54.238571 
	C317.241882,55.973511 318.333740,57.577801 319.048096,59.338684 
	C320.105988,61.946449 320.945435,64.642845 322.136963,68.040237 
	C318.191498,70.022942 317.259918,77.754135 309.433289,76.793114 
	C309.223022,79.837830 309.014587,82.856163 308.785980,86.166771 
	C312.255096,85.897667 314.994965,85.685143 317.734833,85.472610 
	C317.420471,85.098793 317.106140,84.724968 316.791779,84.351151 
	C317.803406,82.556473 318.815063,80.761803 320.377289,79.176155 
	C320.893860,79.457787 321.410431,79.739410 322.560394,80.392441 
	C325.036865,80.392441 327.513306,80.392441 331.314941,80.392441 
	C330.898590,84.029854 330.439117,88.044304 329.961426,92.739143 
	C330.634521,93.811676 331.307617,94.884201 331.901764,96.653015 
	C326.622437,106.169220 318.523254,111.702789 307.751556,112.636353 
	C302.880768,113.058495 297.892029,112.120132 292.977142,111.076141 
	C290.679932,109.703865 288.382751,108.331596 286.017822,106.991287 
	C286.017822,106.991287 286.036316,106.918732 285.928009,106.264503 
M140.727676,97.100250 
	C141.488098,95.488007 142.248535,93.875755 143.405380,91.423012 
	C131.912140,91.423012 121.071136,91.423012 109.934143,91.423012 
	C109.934143,73.939293 109.934143,57.167107 109.934143,40.230576 
	C85.411972,40.230576 61.218967,40.230576 36.708290,40.230576 
	C36.708290,48.029701 36.708290,55.464638 36.708290,61.661594 
	C27.363327,68.484299 25.369154,78.794266 18.575994,87.579910 
	C25.601002,87.579910 31.004265,87.579910 36.971786,87.579910 
	C36.971786,97.364136 36.971786,106.571541 36.971786,116.001083 
	C50.859779,116.001083 64.172493,116.141373 77.477646,115.886368 
	C80.240654,115.833412 82.975578,114.314697 85.908691,113.414658 
	C85.895721,113.336044 86.108665,114.626419 86.337669,116.014122 
	C100.335396,116.014122 113.994743,116.102890 127.649368,115.889381 
	C129.167786,115.865639 131.245605,114.471092 132.058365,113.111237 
	C135.039108,108.124001 137.595169,102.882942 140.727676,97.100250 
M262.836945,18.021729 
	C259.492340,13.993555 257.908478,7.033587 250.111115,10.397810 
	C250.111115,18.130068 250.111115,25.867405 250.111115,33.643227 
	C252.666245,33.643227 254.923599,33.643227 257.794189,33.643227 
	C257.794189,30.278959 257.794189,27.103418 257.794189,23.040464 
	C262.657135,28.045483 263.909271,36.844658 272.858459,33.360153 
	C272.858459,25.474077 272.858459,17.738771 272.858459,10.218189 
	C270.245331,10.218189 268.008759,10.218189 265.398865,10.218189 
	C265.398865,13.821197 265.398865,17.073458 265.398865,21.119625 
	C264.298645,19.881998 263.776855,19.295034 262.836945,18.021729 
M221.327637,25.619389 
	C221.947845,26.790840 222.431274,28.063690 223.211731,29.116335 
	C226.742752,33.878841 234.082275,35.539467 239.941772,32.991405 
	C245.449387,30.596363 248.208984,25.177305 247.028290,19.075567 
	C245.967239,13.592295 241.027756,9.592311 234.650818,9.461981 
	C225.197540,9.268777 219.313187,16.168140 221.327637,25.619389 
M303.274292,12.774254 
	C303.274292,19.719515 303.274292,26.664774 303.274292,33.704144 
	C306.183746,33.704144 308.465729,33.704144 311.184174,33.704144 
	C311.184174,31.517675 311.184174,29.499790 311.184174,26.962479 
	C317.139160,34.366894 317.139160,34.366894 324.195068,33.318890 
	C322.399841,30.266712 320.670654,27.326870 318.881805,24.285549 
	C322.472687,21.875374 323.854950,18.431229 322.058380,14.779274 
	C321.056061,12.741753 318.343567,10.195991 316.437744,10.225273 
	C312.082214,10.292201 307.155823,7.634434 303.274292,12.774254 
M89.198212,27.606659 
	C89.713623,27.842268 90.454811,27.933895 90.710625,28.335049 
	C94.652634,34.516762 94.637985,34.526100 102.126633,33.254665 
	C100.352982,30.230282 98.634148,27.299387 96.883064,24.313482 
	C100.285728,21.687901 101.666496,18.638870 100.183090,14.605745 
	C98.608742,10.325342 95.156204,9.782576 91.285629,9.849306 
	C88.010262,9.905774 84.733154,9.860945 81.408104,9.860945 
	C81.408104,18.090958 81.408104,25.819897 81.408104,33.622719 
	C84.098961,33.622719 86.513283,33.622719 89.128426,33.622719 
	C89.128426,31.714167 89.128426,30.056679 89.198212,27.606659 
M285.189362,30.475643 
	C287.461060,30.538973 291.311127,29.869795 291.737885,30.789358 
	C293.859802,35.361458 297.449493,33.522701 300.960602,33.842876 
	C298.556183,26.357811 296.402771,19.077358 293.749969,11.983666 
	C293.325073,10.847395 290.649139,9.962456 289.043762,10.008405 
	C287.062042,10.065127 283.847961,10.722723 283.356995,11.977663 
	C280.596191,19.034775 278.494110,26.349588 276.151947,33.624229 
	C282.920502,34.117691 282.920502,34.117691 285.189362,30.475643 
M162.758850,17.743500 
	C159.770111,9.359473 159.770111,9.359473 150.750946,10.184212 
	C148.221848,17.863508 145.644852,25.688271 142.917191,33.970486 
	C146.304047,33.167610 149.838928,35.742439 152.017578,31.163580 
	C152.484009,30.183298 158.440704,30.166142 158.875153,31.099094 
	C161.002808,35.667931 164.522034,33.225739 167.975876,33.972672 
	C166.191055,28.505423 164.561768,23.514561 162.758850,17.743500 
M349.788727,30.224937 
	C351.423218,30.369930 354.260345,30.074284 354.500641,30.730101 
	C356.309509,35.667053 359.910126,33.521454 363.537415,33.676289 
	C360.805450,25.414047 358.233551,17.635826 355.738281,10.089448 
	C352.274139,10.089448 349.317810,10.089448 346.345856,10.089448 
	C343.774048,17.973581 341.267975,25.656164 338.767853,33.320526 
	C343.260712,35.160717 346.302795,33.302368 349.788727,30.224937 
M121.047806,10.412237 
	C115.864128,10.178502 110.680443,9.944767 105.520981,9.712124 
	C105.520981,18.218195 105.520981,25.816740 105.520981,33.615856 
	C110.841995,33.615856 115.906128,33.615856 121.234314,33.615856 
	C121.140694,31.592863 121.060265,29.854818 120.973808,27.986675 
	C118.735756,27.986675 116.902008,28.127071 115.109062,27.917845 
	C114.387962,27.833693 113.756363,26.982544 113.084038,26.480476 
	C113.701981,25.914845 114.272400,24.939724 114.946899,24.861450 
	C116.861191,24.639296 118.818016,24.783577 120.749451,24.783577 
	C120.749451,22.543085 120.749451,20.939358 120.749451,19.363329 
	C113.394905,18.558674 113.394905,18.558674 113.635101,15.515097 
	C116.056984,15.395904 118.492867,15.276022 121.179016,15.143823 
	C121.179016,13.641229 121.179016,12.490858 121.047806,10.412237 
M186.256653,11.898326 
	C185.618210,11.125240 185.104660,9.854443 184.321548,9.657961 
	C178.165039,8.113306 170.908081,13.202474 169.893585,19.606884 
	C168.444992,28.751881 175.503464,34.993454 186.015350,33.671410 
	C186.015350,31.292486 186.015350,28.893002 186.015350,26.493515 
	C185.579483,26.846951 185.143600,27.200386 184.707733,27.553823 
	C182.592239,25.645708 178.951843,23.936520 178.671692,21.788980 
	C178.045715,16.990383 182.618622,17.202520 186.258286,17.093651 
	C186.258286,15.399545 186.258286,14.093380 186.256653,11.898326 
M190.835388,27.460484 
	C194.920502,33.371578 199.469635,35.136269 205.740784,33.409092 
	C205.740784,30.920578 205.740784,28.518009 205.740784,26.075611 
	C202.039719,26.522966 198.558929,26.431828 198.235443,22.146988 
	C197.827026,16.737242 202.408157,17.359789 205.815674,17.034740 
	C205.815674,14.530045 205.815674,12.285650 205.815674,10.101185 
	C194.269760,7.913526 187.252670,15.720640 190.835388,27.460484 
M136.808197,25.380690 
	C142.126205,25.729370 139.778122,22.329115 139.788391,19.621441 
	C137.193542,19.621441 134.918259,19.621441 132.670380,19.621441 
	C132.533005,16.035450 132.533005,16.035450 140.459198,14.838639 
	C140.459198,13.315685 140.459198,11.768445 140.459198,10.135563 
	C135.138947,10.135563 130.077972,10.135563 124.994553,10.135563 
	C124.994553,18.105762 124.994553,25.811178 124.994553,33.623356 
	C127.509979,33.623356 129.753418,33.623356 131.397949,33.623356 
	C134.229767,31.173128 128.819534,25.238115 136.808197,25.380690 
M335.571259,11.103510 
	C333.174957,10.264884 330.778687,9.426259 327.876923,8.410732 
	C327.876923,17.683582 327.876923,25.577003 327.876923,33.544899 
	C330.462189,33.544899 332.840332,33.544899 335.584656,33.544899 
	C335.584656,26.173521 335.584656,19.087133 335.571259,11.103510 
M212.660629,33.803661 
	C214.410172,33.803661 216.159714,33.803661 217.742874,33.803661 
	C217.742874,25.256704 217.742874,17.360016 217.742874,9.631407 
	C214.974884,9.631407 212.585327,9.631407 210.046036,9.631407 
	C210.046036,16.965216 209.980789,23.947590 210.121445,30.925814 
	C210.140945,31.893080 211.177475,32.839848 212.660629,33.803661 
z"/>
<path fill="#030303" opacity="1.000000" stroke="none" 
	d="
M140.519409,97.418846 
	C137.595169,102.882942 135.039108,108.124001 132.058365,113.111237 
	C131.245605,114.471092 129.167786,115.865639 127.649368,115.889381 
	C113.994743,116.102890 100.335396,116.014122 86.337669,116.014122 
	C86.108665,114.626419 85.895721,113.336044 85.908691,113.414658 
	C82.975578,114.314697 80.240654,115.833412 77.477646,115.886368 
	C64.172493,116.141373 50.859779,116.001083 36.971786,116.001083 
	C36.971786,106.571541 36.971786,97.364136 36.971786,87.579910 
	C31.004265,87.579910 25.601002,87.579910 18.575994,87.579910 
	C25.369154,78.794266 27.363327,68.484299 36.708290,61.661594 
	C36.708290,55.464638 36.708290,48.029701 36.708290,40.230576 
	C61.218967,40.230576 85.411972,40.230576 109.934143,40.230576 
	C109.934143,57.167107 109.934143,73.939293 109.934143,91.423012 
	C121.071136,91.423012 131.912140,91.423012 143.405380,91.423012 
	C142.248535,93.875755 141.488098,95.488007 140.519409,97.418846 
M43.208843,86.657616 
	C43.208843,94.227364 43.208843,101.797112 43.208843,109.763199 
	C54.987812,109.763199 66.118179,109.798775 77.247368,109.700073 
	C78.205307,109.691574 79.553413,109.041885 80.038765,108.264526 
	C81.931702,105.232735 83.550194,102.029587 85.705177,98.097443 
	C74.931038,98.097443 65.075935,98.097443 54.940464,98.097443 
	C54.940464,93.264252 55.094173,88.961197 54.888165,84.675430 
	C54.743057,81.656639 56.210762,80.970993 58.786423,81.006676 
	C63.445759,81.071220 68.106781,81.004738 72.767090,81.010185 
	C79.968681,81.018593 83.420120,77.867966 84.599838,69.890320 
	C74.786995,69.890320 65.022820,69.890320 55.211040,69.890320 
	C55.211040,65.814507 55.211040,62.085987 55.211040,57.964661 
	C62.448132,57.964661 69.407349,58.036007 76.362503,57.899765 
	C77.634514,57.874844 79.440407,57.372238 80.051384,56.456982 
	C82.000801,53.536667 83.503517,50.318161 85.274872,47.036743 
	C70.825676,47.036743 57.116711,47.036743 43.047478,47.036743 
	C43.047478,54.870193 43.047478,62.302746 43.047478,70.075745 
	C34.055172,68.493645 34.475262,76.388443 30.227631,81.320190 
	C35.204704,81.320190 38.945400,81.320190 42.841019,81.320190 
	C42.975925,83.094879 43.074852,84.396263 43.208843,86.657616 
M124.817184,109.791397 
	C130.645050,108.149727 130.128799,102.295731 133.775711,97.810638 
	C123.047928,97.810638 113.654572,97.810638 103.796585,97.810638 
	C103.796585,80.448692 103.796585,63.587826 103.796585,46.722473 
	C99.736053,46.722473 96.174004,46.722473 92.380318,46.722473 
	C92.380318,67.852699 92.380318,88.565269 92.380318,109.781013 
	C103.067650,109.781013 113.504387,109.781013 124.817184,109.791397 
z"/>
<path fill="#090909" opacity="1.000000" stroke="none" 
	d="
M319.826691,78.967125 
	C318.815063,80.761803 317.803406,82.556473 316.791779,84.351151 
	C317.106140,84.724968 317.420471,85.098793 317.734833,85.472610 
	C314.994965,85.685143 312.255096,85.897667 308.785980,86.166771 
	C309.014587,82.856163 309.223022,79.837830 309.433289,76.793114 
	C317.259918,77.754135 318.191498,70.022942 322.136963,68.040237 
	C320.945435,64.642845 320.105988,61.946449 319.048096,59.338684 
	C318.333740,57.577801 317.241882,55.973511 316.451996,54.238571 
	C315.948975,53.133682 315.689484,51.917927 315.320801,50.751884 
	C315.918793,50.844990 316.516815,50.938095 317.725800,51.371555 
	C321.035767,54.419693 323.734711,57.127472 326.050903,59.866196 
	C321.472809,60.471745 323.746307,62.122307 325.002228,64.504822 
	C325.892426,62.496307 326.446289,61.246613 327.315552,59.791286 
	C327.374084,57.995289 327.686005,55.747326 326.752167,54.939667 
	C324.105408,52.650463 320.949158,50.950382 317.993561,49.018288 
	C319.370422,44.388428 322.146667,48.488846 324.591431,48.298340 
	C325.452698,49.164806 325.913849,49.757778 326.375000,50.350750 
	C326.623199,50.051804 326.871368,49.752861 327.119568,49.453918 
	C326.394287,48.959187 325.669006,48.464455 324.943726,47.969727 
	C325.376526,47.348797 326.083466,46.138149 326.201965,46.193230 
	C329.133301,47.555981 332.002319,49.052692 334.822510,50.494942 
	C334.822510,48.027317 334.822510,44.387634 334.822510,39.921261 
	C342.812958,39.921261 350.372589,39.808548 357.919403,40.068344 
	C358.830963,40.099728 359.904053,42.032558 360.507294,43.275772 
	C363.034515,48.483948 365.411316,53.765129 368.159363,59.384521 
	C368.750427,59.680782 368.939972,59.508373 369.044159,59.232239 
	C371.483521,53.602604 373.829895,47.929214 376.441681,42.380741 
	C376.955902,41.288231 378.472809,39.989571 379.563019,39.956284 
	C386.673462,39.739208 393.793793,39.844696 401.051270,39.844696 
	C401.051270,65.421227 401.051270,90.489159 401.051270,115.789307 
	C393.211273,115.789307 385.607147,115.789307 377.461487,115.789307 
	C377.461487,110.019142 377.461487,104.258789 377.461487,99.265503 
	C370.995148,99.265503 365.064667,99.265503 358.944092,99.265503 
	C358.944092,104.193146 358.944092,109.678261 358.944092,115.590622 
	C351.218903,115.590622 343.658905,115.590622 335.394531,115.590622 
	C335.394531,111.304909 335.394531,106.811287 335.394531,102.317657 
	C328.688171,109.438148 321.540375,114.740524 312.203461,116.578865 
	C305.166351,117.964409 298.320587,117.171028 291.656921,114.652168 
	C290.057678,114.047661 290.098694,113.939133 291.743286,112.123276 
	C292.541931,112.131126 292.781952,112.035835 292.956818,111.798996 
	C297.892029,112.120132 302.880768,113.058495 307.751556,112.636353 
	C318.523254,111.702789 326.622437,106.169220 332.229675,96.089005 
	C333.428864,92.350159 334.300201,89.175331 335.480164,85.944794 
	C335.638306,84.925690 335.487762,83.962288 335.181915,82.582031 
	C335.129578,80.110321 335.232483,78.055466 335.629333,75.932297 
	C336.142670,75.109589 336.362030,74.355194 336.581421,73.600800 
	C336.067749,73.700081 335.554108,73.799355 334.660034,74.100082 
	C334.537018,77.629219 334.794403,80.956909 335.031891,84.470177 
	C335.011993,84.655762 334.990662,85.028450 334.636780,85.116753 
	C332.848450,87.489616 331.414032,89.774185 329.979614,92.058746 
	C330.439117,88.044304 330.898590,84.029854 331.314941,80.392441 
	C327.513306,80.392441 325.036865,80.392441 322.210510,79.892624 
	C321.774139,78.774139 321.687653,78.155479 321.393616,76.051987 
	C320.567139,77.589592 320.196899,78.278358 319.826691,78.967125 
M380.647583,73.930664 
	C381.321747,72.769569 381.995941,71.608475 382.670105,70.447380 
	C383.069702,70.554123 383.469299,70.660866 383.868896,70.767601 
	C383.868896,83.601097 383.868896,96.434586 383.868896,109.434822 
	C387.930817,109.434822 391.349762,109.434822 395.112427,109.434822 
	C395.112427,88.486443 395.112427,67.776558 395.112427,47.101646 
	C382.485931,45.337559 382.489288,45.339066 377.569794,56.290333 
	C374.808594,62.437012 372.034241,68.577766 368.708191,75.958588 
	C365.428650,68.830109 362.710938,63.028023 360.081970,57.186005 
	C355.023163,45.944584 355.043945,45.934429 342.645355,46.765697 
	C342.513123,46.774563 342.391235,46.937828 342.029480,47.198116 
	C342.029480,67.750328 342.029480,88.471413 342.029480,109.437675 
	C345.695435,109.437675 349.093689,109.437675 353.069336,109.437675 
	C353.069336,96.203041 353.069336,83.232124 353.069336,70.261208 
	C357.171997,76.579453 360.221375,83.110474 362.981995,89.761345 
	C364.046997,92.327202 365.152893,93.784767 368.306671,93.812714 
	C371.560822,93.841545 372.580109,92.126305 373.608612,89.657364 
	C375.713348,84.604858 378.010834,79.632637 380.647583,73.930664 
M331.043213,65.292351 
	C331.948120,66.236389 332.852997,67.180435 333.757904,68.124474 
	C334.094452,67.844200 334.431000,67.563934 334.767548,67.283661 
	C333.883636,65.336754 332.999725,63.389839 331.684570,60.493015 
	C331.353790,62.481495 331.180756,63.521793 331.043213,65.292351 
M333.515900,69.593170 
	C334.058563,70.237648 334.601227,70.882126 335.143860,71.526596 
	C335.442230,71.159706 335.740570,70.792809 336.038940,70.425919 
	C335.356354,70.024193 334.673737,69.622467 333.515900,69.593170 
M335.468475,55.229122 
	C335.595581,54.843914 335.743378,54.463367 335.832031,54.069496 
	C335.849426,53.992165 335.638184,53.863365 335.532379,53.758297 
	C335.405457,54.143505 335.278534,54.528713 335.468475,55.229122 
z"/>
<path fill="#080808" opacity="1.000000" stroke="none" 
	d="
M277.844482,102.061760 
	C276.365784,101.409012 274.887054,100.756271 273.344788,100.075455 
	C256.526428,124.395760 227.275650,120.589165 213.140930,101.980705 
	C207.848373,110.576180 199.840820,115.140259 190.217392,115.742676 
	C179.465225,116.415741 168.638458,115.897095 157.352402,115.897095 
	C157.352402,106.436325 157.352402,97.184822 157.352402,87.449371 
	C151.615204,87.449371 146.354935,87.449371 139.609177,87.449371 
	C145.753845,78.444931 148.017929,68.382454 157.301727,61.122292 
	C157.301727,56.141190 157.160049,49.650478 157.423950,43.176300 
	C157.475357,41.915165 159.115448,39.645050 160.002914,39.654755 
	C171.127625,39.776436 182.295807,39.726315 193.356384,40.756111 
	C202.910187,41.645622 208.590500,47.971241 211.061813,57.355846 
	C231.108780,30.437605 261.255127,38.227993 273.888306,57.154114 
	C286.505035,40.883846 302.128571,35.628387 321.205353,43.785683 
	C321.315796,44.306931 321.426239,44.828175 321.536713,45.349419 
	C318.129028,45.847412 314.548279,47.264236 311.348022,46.661343 
	C303.523865,45.187355 296.550842,46.472157 289.411835,51.119251 
	C287.888947,52.660007 286.938660,53.825298 286.003784,54.991470 
	C286.019165,54.992348 286.019745,54.962952 285.722839,54.700935 
	C279.159790,59.652573 276.624756,66.905861 274.786346,75.394974 
	C268.910248,53.472107 257.644775,43.876259 239.659775,44.701355 
	C226.493073,45.305397 213.763138,56.641647 211.162003,70.079163 
	C208.046570,86.173531 215.893280,102.043625 230.064102,108.084038 
	C239.905975,112.279221 249.428558,111.772308 258.567993,105.910675 
	C267.374573,100.262520 271.695709,91.639381 274.144043,80.976082 
	C275.991608,87.452309 277.503296,92.751190 279.016968,98.424011 
	C278.627502,99.885887 278.235992,100.973824 277.844482,102.061760 
M163.250000,51.647247 
	C163.250000,57.748741 163.250000,63.850231 163.250000,69.885490 
	C156.139496,70.379532 153.756836,72.796188 151.689728,81.029724 
	C153.034439,81.029724 154.363266,81.041649 155.691818,81.027786 
	C164.218384,80.938820 163.254181,80.347191 163.297485,88.364815 
	C163.335678,95.434212 163.305481,102.503983 163.305481,109.665810 
	C171.863571,109.665810 179.675400,109.712822 187.485886,109.630730 
	C189.298615,109.611679 191.122086,109.231377 192.914444,108.882751 
	C202.846481,106.950920 209.117340,100.280197 209.628510,90.560394 
	C210.012131,83.265587 207.184265,77.291466 200.541245,73.521805 
	C201.044052,72.500229 201.283615,71.902664 201.613327,71.359840 
	C209.070465,59.082813 203.245667,47.835155 188.818695,47.004829 
	C181.519196,46.584721 174.182983,46.824787 166.878098,46.466103 
	C163.431625,46.296867 162.969940,47.997044 163.250000,51.647247 
z"/>
<path fill="#F4F3F1" opacity="1.000000" stroke="none" 
	d="
M279.014954,98.050079 
	C277.503296,92.751190 275.991608,87.452309 274.144043,80.976082 
	C271.695709,91.639381 267.374573,100.262520 258.567993,105.910675 
	C249.428558,111.772308 239.905975,112.279221 230.064102,108.084038 
	C215.893280,102.043625 208.046570,86.173531 211.162003,70.079163 
	C213.763138,56.641647 226.493073,45.305397 239.659775,44.701355 
	C257.644775,43.876259 268.910248,53.472107 274.786346,75.394974 
	C276.624756,66.905861 279.159790,59.652573 286.060669,54.956993 
	C285.707520,56.778683 284.669128,58.047470 283.741058,59.392365 
	C280.815857,63.631268 277.500702,68.044823 279.542023,73.442535 
	C280.927826,77.106926 283.652557,80.264931 285.801758,83.686409 
	C289.825897,81.097763 283.874329,76.514618 288.997498,75.504410 
	C290.148132,76.904961 291.280762,77.938599 292.413422,78.972244 
	C292.413422,78.972244 292.616119,78.930832 292.586792,79.242844 
	C288.043335,85.719925 283.529175,91.885002 279.014954,98.050079 
M214.083908,70.912987 
	C212.188416,82.532074 214.757126,92.907341 223.659393,100.888863 
	C234.076492,110.228554 249.580353,110.558838 259.927063,102.218124 
	C271.379883,92.985741 275.207520,75.444832 268.495667,62.950821 
	C263.296844,53.273270 250.807678,46.216862 240.840256,47.325428 
	C227.401672,48.820049 218.238968,56.681046 214.083908,70.912987 
z"/>
<path fill="#050505" opacity="1.000000" stroke="none" 
	d="
M279.016998,98.424011 
	C283.529175,91.885002 288.043335,85.719925 292.689697,79.253395 
	C293.785736,77.226059 294.749512,75.500183 296.211426,72.882309 
	C297.243713,72.882309 299.683990,72.882309 302.636963,73.185532 
	C303.276825,73.706680 303.454498,73.869446 303.682739,73.977036 
	C302.739136,77.124840 305.097107,81.767906 299.124969,83.892136 
	C303.751099,86.137917 308.377228,88.383698 313.880341,91.055214 
	C310.360870,96.540009 306.837189,102.031357 302.681091,108.508293 
	C298.559845,103.639748 294.306824,98.615555 289.870850,93.025291 
	C289.479797,92.164062 289.271698,91.868912 289.063629,91.573746 
	C288.682281,92.038605 288.300964,92.503456 287.919647,92.968307 
	C286.398712,96.814835 284.877777,100.661362 283.601685,105.102325 
	C284.576447,106.104080 285.306396,106.511406 286.036316,106.918732 
	C286.036316,106.918732 286.017822,106.991287 286.124359,107.351974 
	C286.249481,108.479538 286.268066,109.246414 286.286621,110.013298 
	C281.606750,111.518929 278.658875,108.992348 277.882355,102.452171 
	C278.235992,100.973824 278.627502,99.885887 279.016998,98.424011 
M296.295074,83.301315 
	C296.889923,83.285530 297.484802,83.269737 298.079651,83.253944 
	C297.703491,83.122391 297.327362,82.990837 296.295074,83.301315 
M299.012177,81.535065 
	C299.303284,81.573128 299.594360,81.611183 299.885468,81.649246 
	C299.760162,81.460625 299.634888,81.272011 299.012177,81.535065 
z"/>
<path fill="#060606" opacity="1.000000" stroke="none" 
	d="
M263.046021,18.364899 
	C263.776855,19.295034 264.298645,19.881998 265.398865,21.119625 
	C265.398865,17.073458 265.398865,13.821197 265.398865,10.218189 
	C268.008759,10.218189 270.245331,10.218189 272.858459,10.218189 
	C272.858459,17.738771 272.858459,25.474077 272.858459,33.360153 
	C263.909271,36.844658 262.657135,28.045483 257.794189,23.040464 
	C257.794189,27.103418 257.794189,30.278959 257.794189,33.643227 
	C254.923599,33.643227 252.666245,33.643227 250.111115,33.643227 
	C250.111115,25.867405 250.111115,18.130068 250.111115,10.397810 
	C257.908478,7.033587 259.492340,13.993555 263.046021,18.364899 
z"/>
<path fill="#090909" opacity="1.000000" stroke="none" 
	d="
M288.979553,75.137505 
	C283.874329,76.514618 289.825897,81.097763 285.801758,83.686409 
	C283.652557,80.264931 280.927826,77.106926 279.542023,73.442535 
	C277.500702,68.044823 280.815857,63.631268 283.741058,59.392365 
	C284.669128,58.047470 285.707520,56.778683 286.357574,55.219009 
	C286.019745,54.962952 286.019165,54.992348 286.234497,55.380093 
	C287.639160,55.001038 288.828491,54.234238 290.017853,53.467438 
	C294.533173,54.358471 298.601990,53.230690 302.773682,51.397755 
	C304.810120,50.502991 307.547455,51.203403 309.967529,51.181786 
	C309.384460,53.502060 308.801392,55.822338 308.218323,58.142620 
	C307.641388,58.164673 307.064453,58.186729 306.487518,58.208786 
	C305.962250,56.928288 305.436981,55.647793 304.497711,53.841705 
	C303.820160,53.547188 303.556580,53.778259 303.293030,54.009335 
	C303.561493,57.129780 303.829956,60.250225 303.993286,62.148514 
	C299.284271,65.924187 294.968109,69.384857 290.456482,73.392105 
	C289.833862,74.338303 289.406708,74.737900 288.979553,75.137505 
z"/>
<path fill="#080808" opacity="1.000000" stroke="none" 
	d="
M221.200256,25.231762 
	C219.313187,16.168140 225.197540,9.268777 234.650818,9.461981 
	C241.027756,9.592311 245.967239,13.592295 247.028290,19.075567 
	C248.208984,25.177305 245.449387,30.596363 239.941772,32.991405 
	C234.082275,35.539467 226.742752,33.878841 223.211731,29.116335 
	C222.431274,28.063690 221.947845,26.790840 221.200256,25.231762 
M229.608887,20.898401 
	C230.789093,22.979721 231.731293,25.284170 233.321854,26.980778 
	C233.705185,27.389645 236.839493,26.204906 237.660751,25.024143 
	C239.728302,22.051472 239.262192,18.804359 236.010101,16.957354 
	C232.806305,15.137781 230.765717,16.994482 229.608887,20.898401 
z"/>
<path fill="#0B0B0B" opacity="1.000000" stroke="none" 
	d="
M303.276367,12.300314 
	C307.155823,7.634434 312.082214,10.292201 316.437744,10.225273 
	C318.343567,10.195991 321.056061,12.741753 322.058380,14.779274 
	C323.854950,18.431229 322.472687,21.875374 318.881805,24.285549 
	C320.670654,27.326870 322.399841,30.266712 324.195068,33.318890 
	C317.139160,34.366894 317.139160,34.366894 311.184174,26.962479 
	C311.184174,29.499790 311.184174,31.517675 311.184174,33.704144 
	C308.465729,33.704144 306.183746,33.704144 303.274292,33.704144 
	C303.274292,26.664774 303.274292,19.719515 303.276367,12.300314 
z"/>
<path fill="#0A0A0A" opacity="1.000000" stroke="none" 
	d="
M89.163315,28.002926 
	C89.128426,30.056679 89.128426,31.714167 89.128426,33.622719 
	C86.513283,33.622719 84.098961,33.622719 81.408104,33.622719 
	C81.408104,25.819897 81.408104,18.090958 81.408104,9.860945 
	C84.733154,9.860945 88.010262,9.905774 91.285629,9.849306 
	C95.156204,9.782576 98.608742,10.325342 100.183090,14.605745 
	C101.666496,18.638870 100.285728,21.687901 96.883064,24.313482 
	C98.634148,27.299387 100.352982,30.230282 102.126633,33.254665 
	C94.637985,34.526100 94.652634,34.516762 90.710625,28.335049 
	C90.454811,27.933895 89.713623,27.842268 89.163315,28.002926 
z"/>
<path fill="#0A0A0A" opacity="1.000000" stroke="none" 
	d="
M284.927124,30.798166 
	C282.920502,34.117691 282.920502,34.117691 276.151947,33.624229 
	C278.494110,26.349588 280.596191,19.034775 283.356995,11.977663 
	C283.847961,10.722723 287.062042,10.065127 289.043762,10.008405 
	C290.649139,9.962456 293.325073,10.847395 293.749969,11.983666 
	C296.402771,19.077358 298.556183,26.357811 300.960602,33.842876 
	C297.449493,33.522701 293.859802,35.361458 291.737885,30.789358 
	C291.311127,29.869795 287.461060,30.538973 284.927124,30.798166 
z"/>
<path fill="#0B0B0B" opacity="1.000000" stroke="none" 
	d="
M162.845673,18.133598 
	C164.561768,23.514561 166.191055,28.505423 167.975876,33.972672 
	C164.522034,33.225739 161.002808,35.667931 158.875153,31.099094 
	C158.440704,30.166142 152.484009,30.183298 152.017578,31.163580 
	C149.838928,35.742439 146.304047,33.167610 142.917191,33.970486 
	C145.644852,25.688271 148.221848,17.863508 150.750946,10.184212 
	C159.770111,9.359473 159.770111,9.359473 162.845673,18.133598 
z"/>
<path fill="#090909" opacity="1.000000" stroke="none" 
	d="
M349.371552,30.230345 
	C346.302795,33.302368 343.260712,35.160717 338.767853,33.320526 
	C341.267975,25.656164 343.774048,17.973581 346.345856,10.089448 
	C349.317810,10.089448 352.274139,10.089448 355.738281,10.089448 
	C358.233551,17.635826 360.805450,25.414047 363.537415,33.676289 
	C359.910126,33.521454 356.309509,35.667053 354.500641,30.730101 
	C354.260345,30.074284 351.423218,30.369930 349.371552,30.230345 
z"/>
<path fill="#0C0C0C" opacity="1.000000" stroke="none" 
	d="
M121.113411,10.876362 
	C121.179016,12.490858 121.179016,13.641229 121.179016,15.143823 
	C118.492867,15.276022 116.056984,15.395904 113.635101,15.515097 
	C113.394905,18.558674 113.394905,18.558674 120.749451,19.363329 
	C120.749451,20.939358 120.749451,22.543085 120.749451,24.783577 
	C118.818016,24.783577 116.861191,24.639296 114.946899,24.861450 
	C114.272400,24.939724 113.701981,25.914845 113.084038,26.480476 
	C113.756363,26.982544 114.387962,27.833693 115.109062,27.917845 
	C116.902008,28.127071 118.735756,27.986675 120.973808,27.986675 
	C121.060265,29.854818 121.140694,31.592863 121.234314,33.615856 
	C115.906128,33.615856 110.841995,33.615856 105.520981,33.615856 
	C105.520981,25.816740 105.520981,18.218195 105.520981,9.712124 
	C110.680443,9.944767 115.864128,10.178502 121.113411,10.876362 
z"/>
<path fill="#080808" opacity="1.000000" stroke="none" 
	d="
M186.257477,12.342771 
	C186.258286,14.093380 186.258286,15.399545 186.258286,17.093651 
	C182.618622,17.202520 178.045715,16.990383 178.671692,21.788980 
	C178.951843,23.936520 182.592239,25.645708 184.707733,27.553823 
	C185.143600,27.200386 185.579483,26.846951 186.015350,26.493515 
	C186.015350,28.893002 186.015350,31.292486 186.015350,33.671410 
	C175.503464,34.993454 168.444992,28.751881 169.893585,19.606884 
	C170.908081,13.202474 178.165039,8.113306 184.321548,9.657961 
	C185.104660,9.854443 185.618210,11.125240 186.257477,12.342771 
z"/>
<path fill="#080808" opacity="1.000000" stroke="none" 
	d="
M190.680832,27.114950 
	C187.252670,15.720640 194.269760,7.913526 205.815674,10.101185 
	C205.815674,12.285650 205.815674,14.530045 205.815674,17.034740 
	C202.408157,17.359789 197.827026,16.737242 198.235443,22.146988 
	C198.558929,26.431828 202.039719,26.522966 205.740784,26.075611 
	C205.740784,28.518009 205.740784,30.920578 205.740784,33.409092 
	C199.469635,35.136269 194.920502,33.371578 190.680832,27.114950 
z"/>
<path fill="#040404" opacity="1.000000" stroke="none" 
	d="
M136.350204,25.380671 
	C128.819534,25.238115 134.229767,31.173128 131.397949,33.623356 
	C129.753418,33.623356 127.509979,33.623356 124.994553,33.623356 
	C124.994553,25.811178 124.994553,18.105762 124.994553,10.135563 
	C130.077972,10.135563 135.138947,10.135563 140.459198,10.135563 
	C140.459198,11.768445 140.459198,13.315685 140.459198,14.838639 
	C132.533005,16.035450 132.533005,16.035450 132.670380,19.621441 
	C134.918259,19.621441 137.193542,19.621441 139.788391,19.621441 
	C139.778122,22.329115 142.126205,25.729370 136.350204,25.380671 
z"/>
<path fill="#141414" opacity="1.000000" stroke="none" 
	d="
M335.577942,11.552128 
	C335.584656,19.087133 335.584656,26.173521 335.584656,33.544899 
	C332.840332,33.544899 330.462189,33.544899 327.876923,33.544899 
	C327.876923,25.577003 327.876923,17.683582 327.876923,8.410732 
	C330.778687,9.426259 333.174957,10.264884 335.577942,11.552128 
z"/>
<path fill="#0A0A0A" opacity="1.000000" stroke="none" 
	d="
M212.201920,33.799881 
	C211.177475,32.839848 210.140945,31.893080 210.121445,30.925814 
	C209.980789,23.947590 210.046036,16.965216 210.046036,9.631407 
	C212.585327,9.631407 214.974884,9.631407 217.742874,9.631407 
	C217.742874,17.360016 217.742874,25.256704 217.742874,33.803661 
	C216.159714,33.803661 214.410172,33.803661 212.201920,33.799881 
z"/>
<path fill="#F4F3F1" opacity="1.000000" stroke="none" 
	d="
M326.433685,59.835251 
	C323.734711,57.127472 321.035767,54.419693 318.145386,51.437843 
	C317.966370,50.687069 317.978760,50.210361 317.992340,49.375973 
	C320.949158,50.950382 324.105408,52.650463 326.752167,54.939667 
	C327.686005,55.747326 327.374084,57.995289 327.205200,59.641335 
	C326.779449,59.697018 326.433685,59.835251 326.433685,59.835251 
z"/>
<path fill="#F4F3F1" opacity="1.000000" stroke="none" 
	d="
M329.970520,92.398941 
	C331.414032,89.774185 332.848450,87.489616 334.659058,85.364029 
	C335.035217,85.523010 335.171509,86.000504 335.171509,86.000504 
	C334.300201,89.175331 333.428864,92.350159 332.269135,95.740860 
	C331.307617,94.884201 330.634521,93.811676 329.970520,92.398941 
z"/>
<path fill="#F4F3F1" opacity="1.000000" stroke="none" 
	d="
M286.634033,110.039764 
	C286.268066,109.246414 286.249481,108.479538 286.158203,107.335991 
	C288.382751,108.331596 290.679932,109.703865 292.966980,111.437569 
	C292.781952,112.035835 292.541931,112.131126 292.125671,112.002403 
	C290.336853,111.302032 288.659180,110.684135 286.634033,110.039764 
z"/>
<path fill="#D6D6D6" opacity="1.000000" stroke="none" 
	d="
M288.997498,75.504410 
	C289.406708,74.737900 289.833862,74.338303 290.499207,73.740456 
	C291.189941,75.097534 291.642517,76.652855 292.254272,78.590210 
	C291.280762,77.938599 290.148132,76.904961 288.997498,75.504410 
z"/>
<path fill="#F4F3F1" opacity="1.000000" stroke="none" 
	d="
M289.973267,53.078941 
	C288.828491,54.234238 287.639160,55.001038 286.219086,55.379211 
	C286.938660,53.825298 287.888947,52.660007 289.166687,51.342960 
	C289.639008,51.690952 289.783844,52.190697 289.973267,53.078941 
z"/>
<path fill="#F4F3F1" opacity="1.000000" stroke="none" 
	d="
M285.982178,106.591621 
	C285.306396,106.511406 284.576447,106.104080 283.845337,105.378296 
	C284.538788,105.461395 285.233398,105.862946 285.982178,106.591621 
z"/>
<path fill="#F4F3F1" opacity="1.000000" stroke="none" 
	d="
M320.101990,79.071640 
	C320.196899,78.278358 320.567139,77.589592 321.393616,76.051987 
	C321.687653,78.155479 321.774139,78.774139 321.893799,79.706924 
	C321.410431,79.739410 320.893860,79.457787 320.101990,79.071640 
z"/>
<path fill="#F4F3F1" opacity="1.000000" stroke="none" 
	d="
M288.207947,92.979691 
	C288.300964,92.503456 288.682281,92.038605 289.063629,91.573746 
	C289.271698,91.868912 289.479797,92.164062 289.668671,92.738297 
	C289.265045,93.008614 288.880646,92.999847 288.207947,92.979691 
z"/>
<path fill="#080808" opacity="1.000000" stroke="none" 
	d="
M303.762878,73.733643 
	C303.454498,73.869446 303.276825,73.706680 303.080017,73.319580 
	C303.287903,73.263680 303.565491,73.376961 303.762878,73.733643 
z"/>
<path fill="#0A0A0A" opacity="1.000000" stroke="none" 
	d="
M368.842682,59.363289 
	C368.939972,59.508373 368.750427,59.680782 368.345093,59.732677 
	C368.214661,59.715897 368.641205,59.494343 368.842682,59.363289 
z"/>
<path fill="#F4F3F1" opacity="1.000000" stroke="none" 
	d="
M303.585144,53.985138 
	C303.556580,53.778259 303.820160,53.547188 304.265045,53.568123 
	C304.256653,53.867073 304.066956,53.914009 303.585144,53.985138 
z"/>
<path fill="#F8F8F8" opacity="1.000000" stroke="none" 
	d="
M43.191311,86.177628 
	C43.074852,84.396263 42.975925,83.094879 42.841019,81.320190 
	C38.945400,81.320190 35.204704,81.320190 30.227631,81.320190 
	C34.475262,76.388443 34.055172,68.493645 43.047478,70.075745 
	C43.047478,62.302746 43.047478,54.870193 43.047478,47.036743 
	C57.116711,47.036743 70.825676,47.036743 85.274872,47.036743 
	C83.503517,50.318161 82.000801,53.536667 80.051384,56.456982 
	C79.440407,57.372238 77.634514,57.874844 76.362503,57.899765 
	C69.407349,58.036007 62.448132,57.964661 55.211040,57.964661 
	C55.211040,62.085987 55.211040,65.814507 55.211040,69.890320 
	C65.022820,69.890320 74.786995,69.890320 84.599838,69.890320 
	C83.420120,77.867966 79.968681,81.018593 72.767090,81.010185 
	C68.106781,81.004738 63.445759,81.071220 58.786423,81.006676 
	C56.210762,80.970993 54.743057,81.656639 54.888165,84.675430 
	C55.094173,88.961197 54.940464,93.264252 54.940464,98.097443 
	C65.075935,98.097443 74.931038,98.097443 85.705177,98.097443 
	C83.550194,102.029587 81.931702,105.232735 80.038765,108.264526 
	C79.553413,109.041885 78.205307,109.691574 77.247368,109.700073 
	C66.118179,109.798775 54.987812,109.763199 43.208843,109.763199 
	C43.208843,101.797112 43.208843,94.227364 43.191311,86.177628 
z"/>
<path fill="#F3F3F3" opacity="1.000000" stroke="none" 
	d="
M124.379158,109.786209 
	C113.504387,109.781013 103.067650,109.781013 92.380318,109.781013 
	C92.380318,88.565269 92.380318,67.852699 92.380318,46.722473 
	C96.174004,46.722473 99.736053,46.722473 103.796585,46.722473 
	C103.796585,63.587826 103.796585,80.448692 103.796585,97.810638 
	C113.654572,97.810638 123.047928,97.810638 133.775711,97.810638 
	C130.128799,102.295731 130.645050,108.149727 124.379158,109.786209 
z"/>
<path fill="#FBFBFB" opacity="1.000000" stroke="none" 
	d="
M380.438293,74.279015 
	C378.010834,79.632637 375.713348,84.604858 373.608612,89.657364 
	C372.580109,92.126305 371.560822,93.841545 368.306671,93.812714 
	C365.152893,93.784767 364.046997,92.327202 362.981995,89.761345 
	C360.221375,83.110474 357.171997,76.579453 353.069336,70.261208 
	C353.069336,83.232124 353.069336,96.203041 353.069336,109.437675 
	C349.093689,109.437675 345.695435,109.437675 342.029480,109.437675 
	C342.029480,88.471413 342.029480,67.750328 342.029480,47.198116 
	C342.391235,46.937828 342.513123,46.774563 342.645355,46.765697 
	C355.043945,45.934429 355.023163,45.944584 360.081970,57.186005 
	C362.710938,63.028023 365.428650,68.830109 368.708191,75.958588 
	C372.034241,68.577766 374.808594,62.437012 377.569794,56.290333 
	C382.489288,45.339066 382.485931,45.337559 395.112427,47.101646 
	C395.112427,67.776558 395.112427,88.486443 395.112427,109.434822 
	C391.349762,109.434822 387.930817,109.434822 383.868896,109.434822 
	C383.868896,96.434586 383.868896,83.601097 383.868896,70.767601 
	C383.469299,70.660866 383.069702,70.554123 382.670105,70.447380 
	C381.995941,71.608475 381.321747,72.769569 380.438293,74.279015 
z"/>
<path fill="#0A0A0A" opacity="1.000000" stroke="none" 
	d="
M331.025452,64.927216 
	C331.180756,63.521793 331.353790,62.481495 331.684570,60.493015 
	C332.999725,63.389839 333.883636,65.336754 334.767548,67.283661 
	C334.431000,67.563934 334.094452,67.844200 333.757904,68.124474 
	C332.852997,67.180435 331.948120,66.236389 331.025452,64.927216 
z"/>
<path fill="#161616" opacity="1.000000" stroke="none" 
	d="
M326.050903,59.866196 
	C326.433685,59.835251 326.779449,59.697018 326.889832,59.846970 
	C326.446289,61.246613 325.892426,62.496307 325.002228,64.504822 
	C323.746307,62.122307 321.472809,60.471745 326.050903,59.866196 
z"/>
<path fill="#909090" opacity="1.000000" stroke="none" 
	d="
M335.051788,84.284592 
	C334.794403,80.956909 334.537018,77.629219 334.795837,74.433105 
	C335.319855,75.043320 335.327606,75.521965 335.335388,76.000618 
	C335.232483,78.055466 335.129578,80.110321 335.152344,82.912735 
	C335.202667,83.868393 335.127228,84.076492 335.051788,84.284592 
z"/>
<path fill="#0A0A0A" opacity="1.000000" stroke="none" 
	d="
M333.753540,69.406952 
	C334.673737,69.622467 335.356354,70.024193 336.038940,70.425919 
	C335.740570,70.792809 335.442230,71.159706 335.143860,71.526596 
	C334.601227,70.882126 334.058563,70.237648 333.753540,69.406952 
z"/>
<path fill="#0A0A0A" opacity="1.000000" stroke="none" 
	d="
M335.629333,75.932297 
	C335.327606,75.521965 335.319855,75.043320 335.176270,74.231644 
	C335.554108,73.799355 336.067749,73.700081 336.581421,73.600800 
	C336.362030,74.355194 336.142670,75.109589 335.629333,75.932297 
z"/>
<path fill="#0A0A0A" opacity="1.000000" stroke="none" 
	d="
M335.031891,84.470177 
	C335.127228,84.076492 335.202667,83.868393 335.307617,83.329590 
	C335.487762,83.962288 335.638306,84.925690 335.480164,85.944794 
	C335.171509,86.000504 335.035217,85.523010 335.012939,85.275726 
	C334.990662,85.028450 335.011993,84.655762 335.031891,84.470177 
z"/>
<path fill="#161616" opacity="1.000000" stroke="none" 
	d="
M324.976959,47.971714 
	C325.669006,48.464455 326.394287,48.959187 327.119568,49.453918 
	C326.871368,49.752861 326.623199,50.051804 326.375000,50.350750 
	C325.913849,49.757778 325.452698,49.164806 324.977539,48.248917 
	C324.963531,47.926003 325.010193,47.973705 324.976959,47.971714 
z"/>
<path fill="#0A0A0A" opacity="1.000000" stroke="none" 
	d="
M335.310059,55.071522 
	C335.278534,54.528713 335.405457,54.143505 335.532379,53.758297 
	C335.638184,53.863365 335.849426,53.992165 335.832031,54.069496 
	C335.743378,54.463367 335.595581,54.843914 335.310059,55.071522 
z"/>
<path fill="#F8F8F8" opacity="1.000000" stroke="none" 
	d="
M163.250931,51.164009 
	C162.969940,47.997044 163.431625,46.296867 166.878098,46.466103 
	C174.182983,46.824787 181.519196,46.584721 188.818695,47.004829 
	C203.245667,47.835155 209.070465,59.082813 201.613327,71.359840 
	C201.283615,71.902664 201.044052,72.500229 200.541245,73.521805 
	C207.184265,77.291466 210.012131,83.265587 209.628510,90.560394 
	C209.117340,100.280197 202.846481,106.950920 192.914444,108.882751 
	C191.122086,109.231377 189.298615,109.611679 187.485886,109.630730 
	C179.675400,109.712822 171.863571,109.665810 163.305481,109.665810 
	C163.305481,102.503983 163.335678,95.434212 163.297485,88.364815 
	C163.254181,80.347191 164.218384,80.938820 155.691818,81.027786 
	C154.363266,81.041649 153.034439,81.029724 151.689728,81.029724 
	C153.756836,72.796188 156.139496,70.379532 163.250000,69.885490 
	C163.250000,63.850231 163.250000,57.748741 163.250931,51.164009 
M192.190399,81.957748 
	C187.582336,81.640663 182.975143,81.152870 178.365616,81.129913 
	C177.252411,81.124367 175.223526,82.596809 175.165298,83.490547 
	C174.847717,88.365059 175.014191,93.271118 175.014191,98.071472 
	C180.514236,98.071472 185.314941,98.330650 190.072922,97.991081 
	C194.019272,97.709442 196.887390,95.546730 197.549316,91.313911 
	C198.192474,87.201172 197.440628,83.717377 192.190399,81.957748 
M175.006042,64.462318 
	C175.006042,66.229996 175.006042,67.997673 175.006042,70.432915 
	C180.001801,70.056641 184.560242,70.273979 188.750595,69.135971 
	C190.557144,68.645340 192.279541,65.490547 192.741074,63.275368 
	C193.022675,61.923817 191.046829,58.878250 189.711685,58.634022 
	C184.969910,57.766655 180.067825,57.775509 175.006042,57.437759 
	C175.006042,60.208168 175.006042,61.856598 175.006042,64.462318 
z"/>
<path fill="#FFCE07" opacity="1.000000" stroke="none" 
	d="
M214.183105,70.511703 
	C218.238968,56.681046 227.401672,48.820049 240.840256,47.325428 
	C250.807678,46.216862 263.296844,53.273270 268.495667,62.950821 
	C275.207520,75.444832 271.379883,92.985741 259.927063,102.218124 
	C249.580353,110.558838 234.076492,110.228554 223.659393,100.888863 
	C214.757126,92.907341 212.188416,82.532074 214.183105,70.511703 
M248.782104,98.608246 
	C257.983368,94.957588 262.808838,87.968910 262.831909,78.288033 
	C262.852814,69.524498 259.612762,61.959915 251.117706,57.905254 
	C243.042770,54.051125 233.925873,56.047184 227.978607,62.643250 
	C221.646301,69.666359 220.918030,80.271591 226.130371,89.558311 
	C230.711517,97.720474 238.195969,100.905685 248.782104,98.608246 
z"/>
<path fill="#F4F3F1" opacity="1.000000" stroke="none" 
	d="
M296.623138,83.080307 
	C297.327362,82.990837 297.703491,83.122391 298.079651,83.253944 
	C297.484802,83.269737 296.889923,83.285530 296.623138,83.080307 
z"/>
<path fill="#FBFBFB" opacity="1.000000" stroke="none" 
	d="
M299.260895,81.309235 
	C299.634888,81.272011 299.760162,81.460625 299.885468,81.649246 
	C299.594360,81.611183 299.303284,81.573128 299.260895,81.309235 
z"/>
<path fill="#EFEFEF" opacity="1.000000" stroke="none" 
	d="
M229.674347,20.531700 
	C230.765717,16.994482 232.806305,15.137781 236.010101,16.957354 
	C239.262192,18.804359 239.728302,22.051472 237.660751,25.024143 
	C236.839493,26.204906 233.705185,27.389645 233.321854,26.980778 
	C231.731293,25.284170 230.789093,22.979721 229.674347,20.531700 
z"/>
<path fill="#040404" opacity="1.000000" stroke="none" 
	d="
M192.595520,82.019379 
	C197.440628,83.717377 198.192474,87.201172 197.549316,91.313911 
	C196.887390,95.546730 194.019272,97.709442 190.072922,97.991081 
	C185.314941,98.330650 180.514236,98.071472 175.014191,98.071472 
	C175.014191,93.271118 174.847717,88.365059 175.165298,83.490547 
	C175.223526,82.596809 177.252411,81.124367 178.365616,81.129913 
	C182.975143,81.152870 187.582336,81.640663 192.595520,82.019379 
z"/>
<path fill="#040404" opacity="1.000000" stroke="none" 
	d="
M175.006042,63.983673 
	C175.006042,61.856598 175.006042,60.208168 175.006042,57.437759 
	C180.067825,57.775509 184.969910,57.766655 189.711685,58.634022 
	C191.046829,58.878250 193.022675,61.923817 192.741074,63.275368 
	C192.279541,65.490547 190.557144,68.645340 188.750595,69.135971 
	C184.560242,70.273979 180.001801,70.056641 175.006042,70.432915 
	C175.006042,67.997673 175.006042,66.229996 175.006042,63.983673 
z"/>
<path fill="#F3F0E7" opacity="1.000000" stroke="none" 
	d="
M248.409363,98.744675 
	C238.195969,100.905685 230.711517,97.720474 226.130371,89.558311 
	C220.918030,80.271591 221.646301,69.666359 227.978607,62.643250 
	C233.925873,56.047184 243.042770,54.051125 251.117706,57.905254 
	C259.612762,61.959915 262.852814,69.524498 262.831909,78.288033 
	C262.808838,87.968910 257.983368,94.957588 248.409363,98.744675 
M258.378204,68.459068 
	C255.077881,61.970371 249.853134,58.171215 242.518784,58.390358 
	C235.392090,58.603294 230.430191,62.638634 227.468567,68.996971 
	C222.784607,79.053017 227.568817,91.613396 237.363541,95.295387 
	C246.578583,98.759460 256.893890,93.557182 259.377533,83.233688 
	C260.434540,78.840218 259.052063,73.859871 258.378204,68.459068 
z"/>
<path fill="#151515" opacity="1.000000" stroke="none" 
	d="
M258.578217,68.802643 
	C259.052063,73.859871 260.434540,78.840218 259.377533,83.233688 
	C256.893890,93.557182 246.578583,98.759460 237.363541,95.295387 
	C227.568817,91.613396 222.784607,79.053017 227.468567,68.996971 
	C230.430191,62.638634 235.392090,58.603294 242.518784,58.390358 
	C249.853134,58.171215 255.077881,61.970371 258.578217,68.802643 
M229.699646,71.698586 
	C229.514206,74.821037 228.825348,78.013458 229.247604,81.051445 
	C230.140320,87.474335 235.636307,92.574654 241.471542,93.102287 
	C248.902161,93.774178 255.035416,89.246635 256.835846,81.760399 
	C258.821960,73.502090 254.825241,64.947075 247.723648,62.255718 
	C240.794739,59.629810 234.166077,62.880356 229.699646,71.698586 
z"/>
<path fill="#FBFBFB" opacity="1.000000" stroke="none" 
	d="
M229.846405,71.324463 
	C234.166077,62.880356 240.794739,59.629810 247.723648,62.255718 
	C254.825241,64.947075 258.821960,73.502090 256.835846,81.760399 
	C255.035416,89.246635 248.902161,93.774178 241.471542,93.102287 
	C235.636307,92.574654 230.140320,87.474335 229.247604,81.051445 
	C228.825348,78.013458 229.514206,74.821037 229.846405,71.324463 
z"/>
</svg>